<svg viewBox="0 0 703.03 57.63" xmlns="http://www.w3.org/2000/svg" data-name="Layer 2" id="Layer_2">
  <g data-name="ARTWORK/CONTENT" id="ARTWORK_CONTENT">
    <g>
      <path d="M45.23,44.53c-1.11,2.7-2.69,5.02-4.75,6.95-2.06,1.93-4.54,3.44-7.45,4.52-2.91,1.08-6.14,1.62-9.7,1.62s-6.85-.54-9.73-1.62c-2.88-1.08-5.33-2.59-7.34-4.52-2.01-1.93-3.55-4.25-4.63-6.95-1.08-2.7-1.62-5.7-1.62-9V1.47h13.13v32.99c0,1.49.19,2.91.58,4.25.39,1.34.98,2.54,1.78,3.59.8,1.06,1.85,1.89,3.17,2.51,1.31.62,2.9.93,4.75.93s3.44-.31,4.75-.93c1.31-.62,2.38-1.45,3.21-2.51.82-1.06,1.42-2.25,1.78-3.59.36-1.34.54-2.75.54-4.25V1.47h13.21v34.07c0,3.3-.55,6.3-1.66,9Z"></path>
      <path d="M86.83,56.16l-11.88-21.71h-4.5v21.71h-12.9V1.47h20.86c2.63,0,5.19.27,7.69.81,2.5.54,4.74,1.46,6.72,2.74,1.98,1.29,3.57,2.99,4.75,5.1,1.18,2.11,1.78,4.74,1.78,7.88,0,3.71-1,6.82-3.01,9.35-2.01,2.52-4.79,4.33-8.34,5.41l14.29,23.41h-15.45ZM86.29,18.23c0-1.29-.27-2.33-.82-3.13-.54-.8-1.24-1.42-2.1-1.85-.85-.44-1.81-.73-2.87-.89-1.06-.15-2.08-.23-3.07-.23h-7.06v12.75h6.29c1.09,0,2.2-.09,3.34-.27,1.14-.18,2.17-.5,3.1-.97.93-.46,1.69-1.13,2.29-2.01.59-.88.89-2.01.89-3.4Z"></path>
      <path d="M151.41,40.25c0,2.99-.59,5.5-1.78,7.53-1.19,2.04-2.76,3.67-4.71,4.91-1.96,1.24-4.18,2.12-6.68,2.67-2.5.54-5.06.81-7.69.81h-21.78V1.47h21.78c2.11,0,4.27.22,6.49.66,2.21.44,4.22,1.19,6.03,2.24,1.8,1.06,3.27,2.49,4.4,4.29,1.13,1.8,1.7,4.09,1.7,6.88,0,3.04-.82,5.55-2.47,7.53-1.65,1.98-3.81,3.41-6.49,4.29v.15c1.54.26,3,.73,4.36,1.43,1.36.69,2.55,1.58,3.55,2.67,1,1.08,1.8,2.34,2.39,3.79.59,1.44.89,3.06.89,4.87ZM136.42,17.3c0-1.85-.71-3.21-2.12-4.06-1.42-.85-3.52-1.27-6.3-1.27h-6.49v11.28h7.11c2.47,0,4.39-.5,5.76-1.51,1.36-1,2.05-2.48,2.05-4.44ZM138.2,39.01c0-2.27-.85-3.84-2.55-4.71-1.7-.88-3.97-1.31-6.8-1.31h-7.34v12.51h7.42c1.03,0,2.1-.09,3.21-.27,1.11-.18,2.11-.5,3.01-.97.9-.46,1.63-1.12,2.2-1.97.57-.85.85-1.94.85-3.28Z"></path>
      <path d="M197.22,56.16l-4.25-10.74h-21.17l-4.02,10.74h-14.37L176.36,1.47h12.82l22.71,54.69h-14.68ZM182.54,16.07l-6.95,18.77h13.75l-6.8-18.77Z"></path>
      <path d="M251.21,56.16l-22.02-35.77h-.23l.31,35.77h-12.82V1.47h15.06l21.94,35.69h.23l-.31-35.69h12.82v54.69h-14.99Z"></path>
      <path d="M345.21,56.16l.31-38.7h-.23l-14.21,38.7h-9.27l-13.83-38.7h-.23l.31,38.7h-12.44V1.47h18.79l12.45,35.07h.31l11.91-35.07h19.1v54.69h-12.98Z"></path>
      <path d="M426.39,28.58c0,4.33-.75,8.28-2.24,11.86-1.49,3.58-3.57,6.64-6.22,9.19-2.65,2.55-5.81,4.52-9.46,5.91-3.66,1.39-7.62,2.09-11.9,2.09s-8.23-.7-11.86-2.09c-3.63-1.39-6.77-3.36-9.42-5.91-2.65-2.55-4.73-5.61-6.22-9.19-1.49-3.58-2.24-7.53-2.24-11.86s.75-8.33,2.24-11.86c1.49-3.53,3.57-6.53,6.22-9,2.65-2.47,5.79-4.38,9.42-5.72,3.63-1.34,7.58-2.01,11.86-2.01s8.24.67,11.9,2.01c3.66,1.34,6.81,3.24,9.46,5.72,2.65,2.47,4.72,5.47,6.22,9,1.49,3.53,2.24,7.48,2.24,11.86ZM412.26,28.58c0-2.37-.39-4.58-1.16-6.64-.77-2.06-1.84-3.82-3.21-5.29-1.37-1.47-3.01-2.63-4.94-3.48-1.93-.85-4.06-1.27-6.37-1.27s-4.43.42-6.33,1.27c-1.91.85-3.55,2.01-4.94,3.48-1.39,1.47-2.46,3.23-3.21,5.29-.75,2.06-1.12,4.28-1.12,6.64s.39,4.75,1.16,6.84,1.84,3.88,3.21,5.37c1.36,1.49,3,2.67,4.91,3.51,1.9.85,4.02,1.27,6.33,1.27s4.43-.42,6.33-1.27c1.9-.85,3.55-2.02,4.94-3.51,1.39-1.49,2.47-3.28,3.25-5.37s1.16-4.36,1.16-6.84Z"></path>
      <path d="M469.89,56.16l-22.02-35.77h-.23l.31,35.77h-12.82V1.47h15.06l21.94,35.69h.23l-.31-35.69h12.82v54.69h-14.99Z"></path>
      <path d="M529.52,56.16l-20.32-25.18h-.15v25.18h-12.9V1.47h12.9v22.25h.23l19.54-22.25h16.53l-23.56,25.18,24.95,29.51h-17.23Z"></path>
      <path d="M551.08,56.16V1.47h36.77v11.12h-24.02v10.35h22.71v10.58h-22.71v11.36h25.42v11.28h-38.16Z"></path>
      <path d="M624.54,32.99v23.17h-13.21v-23.17l-20.55-31.52h15.99l11.67,20.24,11.67-20.24h15.45l-21.01,31.52Z"></path>
      <path d="M645.55,28.81c0-3.96.76-7.69,2.28-11.16,1.52-3.48,3.58-6.51,6.18-9.12,2.6-2.6,5.64-4.66,9.12-6.18,3.48-1.52,7.2-2.28,11.16-2.28s7.69.76,11.16,2.28c3.48,1.52,6.51,3.58,9.12,6.18,2.6,2.6,4.66,5.64,6.18,9.12,1.52,3.48,2.28,7.2,2.28,11.16s-.76,7.69-2.28,11.16c-1.52,3.48-3.58,6.52-6.18,9.12-2.6,2.6-5.64,4.66-9.12,6.18-3.48,1.52-7.2,2.28-11.16,2.28s-7.69-.76-11.16-2.28c-3.48-1.52-6.52-3.58-9.12-6.18-2.6-2.6-4.66-5.64-6.18-9.12-1.52-3.48-2.28-7.2-2.28-11.16ZM653.43,28.81c0,2.99.54,5.81,1.62,8.46,1.08,2.65,2.57,4.96,4.48,6.91,1.9,1.96,4.12,3.51,6.64,4.67,2.52,1.16,5.23,1.74,8.11,1.74s5.59-.58,8.11-1.74c2.52-1.16,4.74-2.72,6.64-4.67,1.9-1.96,3.4-4.26,4.48-6.91,1.08-2.65,1.62-5.47,1.62-8.46s-.54-5.81-1.62-8.46c-1.08-2.65-2.58-4.96-4.48-6.91-1.91-1.96-4.12-3.52-6.64-4.67-2.52-1.16-5.23-1.74-8.11-1.74s-5.59.58-8.11,1.74c-2.52,1.16-4.74,2.72-6.64,4.67-1.91,1.96-3.4,4.26-4.48,6.91-1.08,2.65-1.62,5.47-1.62,8.46ZM663.24,13.44h10.66c.82,0,1.96.05,3.4.15,1.44.1,2.86.46,4.25,1.08,1.39.62,2.6,1.58,3.63,2.9,1.03,1.31,1.54,3.18,1.54,5.6,0,1.54-.21,2.82-.62,3.82-.41,1-.94,1.83-1.58,2.47s-1.39,1.13-2.24,1.47c-.85.34-1.71.55-2.59.66l7.72,11.97h-8.11l-6.88-11.59h-1.31v11.59h-7.88V13.44ZM671.04,25.96h3.17c.46,0,.96-.03,1.51-.08.54-.05,1.04-.18,1.51-.39.46-.21.85-.53,1.16-.97.31-.44.46-1.04.46-1.82s-.15-1.38-.46-1.82c-.31-.44-.7-.76-1.16-.97-.46-.21-.97-.33-1.51-.39-.54-.05-1.04-.08-1.51-.08h-3.17v6.49Z"></path>
    </g>
  </g>
</svg>